<svg xmlns="http://www.w3.org/2000/svg" viewBox="0 0 314.1 97.11">
    <defs>
        <style>
            .cls-1 {
                fill: #fff;
            }
        </style>
    </defs>
    <g id="Layer_2" data-name="Layer 2">
        <g id="Layer_1-2" data-name="Layer 1">
            <path class="cls-1"
                d="M205.77,82.45a29.7,29.7,0,0,1-21.26-9,31,31,0,0,1-2.94-39.83l-.06,0L205.13,4.47h15.79L207.34,21.22a29.67,29.67,0,0,1,20.2,9.46,31,31,0,0,1-.5,42.79A30.12,30.12,0,0,1,217.48,80,29.68,29.68,0,0,1,205.77,82.45Zm0-48.76A17.52,17.52,0,0,0,193.19,39a18.37,18.37,0,0,0,0,25.63,17.56,17.56,0,0,0,25.16,0,18.34,18.34,0,0,0,0-25.63A17.56,17.56,0,0,0,205.77,33.69Z" />
            <path class="cls-1"
                d="M269.24,96.74c-24.77,0-44.86-20.47-44.86-45.73S244.47,5.29,269.24,5.29,314.1,25.76,314.1,51,294,96.74,269.24,96.74Zm22.05-70.12a32.08,32.08,0,0,0-22.05-8.78c-18,0-32.53,14.85-32.53,33.17s14.57,33.17,32.53,33.17S301.77,69.33,301.77,51a33.41,33.41,0,0,0-6.38-19.74L272.77,56.69a3.08,3.08,0,0,1-4.35.3l-.08-.07L255.23,44.48l4.28-4.59,10.82,10.27Z" />
            <path class="cls-1"
                d="M167.75,9.74l0-.24A1.61,1.61,0,0,0,167,8.22a2.35,2.35,0,0,0-1.5-.51c-1.09,0-2,.25-2,1.27,0,.39.3.6.74.79a5.15,5.15,0,0,0,1.15.31c.47.11,1,.19,1.61.3a28.62,28.62,0,0,1,3.8.85c2.54.81,4.9,2.33,4.9,5.71,0,5.7-5.58,7.18-10.23,7.2s-10-1.82-10.1-7.13v-.25H163V17a2.1,2.1,0,0,0,.82,1.49,2.83,2.83,0,0,0,1.85.51c1,0,2.3-.39,2.28-1.27s-.36-1.21-3.94-1.83c-5.35-.89-7.89-2.55-8.22-5.65a7.86,7.86,0,0,0-2.26-.27c-2.77,0-4.27,1.58-4.27,5.69v8h-8l-.1-20.09h7.7V6.13a5.78,5.78,0,0,1,5.35-3,7.8,7.8,0,0,1,2.26.3h.2V6.23c1.77-2.5,5.6-3.21,8.51-3.21,4.22,0,9.62,1.12,9.83,6.39v.32Zm-43,1.9,6.34,0a2.94,2.94,0,0,0-2.9-2.77A3.18,3.18,0,0,0,124.77,11.64Zm0,4.39h-.17a3.46,3.46,0,0,0,1.14,2.46,3.28,3.28,0,0,0,2.54.82A3.34,3.34,0,0,0,131.11,18l.08-.11h7.27l-.11.34c-1.49,4.36-5.63,6.4-10,6.4-6.19,0-10.95-3.76-10.95-10.47a10.49,10.49,0,0,1,2.87-7.56,9.85,9.85,0,0,1,7.31-3.08c7.73,0,11.11,4.43,11.11,12.18V16ZM59.15,11.58l7.37,0a3.26,3.26,0,0,0-3.38-2.77A3.59,3.59,0,0,0,59.15,11.58Zm-49.77,1c0,3,1.26,6,5.07,6A4,4,0,0,0,18.75,15v-.15h8.91v.22c0,4.66-4.73,9.54-13.06,9.54C5.42,24.59.27,19.28.27,12.49.3,5.27,6,.44,14.74.53,22.52.57,26.84,4,27.56,9.76V10H18.68V9.81a3.92,3.92,0,0,0-4.21-3.18C10.7,6.62,9.38,9.56,9.38,12.6ZM51,10.86a10.07,10.07,0,0,1,2.88-4.27A12.56,12.56,0,0,1,62.4,3.53C71.35,3.5,75.31,8,75.31,15.72V16H59.1a3.23,3.23,0,0,0,1.22,2.43,4.1,4.1,0,0,0,2.82.9A4.2,4.2,0,0,0,66.44,18l.08-.12H75l-.14.34c-1.74,4.36-6.54,6.4-11.62,6.4-5.94,0-10.75-2.56-12.26-7.21v6.65H42.83V13.74c0-2.27-.28-3.56-2.25-3.56-1.18,0-2.78.54-2.78,3.49V24.12H29.68V0h8.13l-.08,6.07a7.81,7.81,0,0,1,6.1-2.27A6.82,6.82,0,0,1,49,5.63a6.38,6.38,0,0,1,2,4.94ZM96.1,18.22a9.82,9.82,0,0,1-9.83,6.41,10.55,10.55,0,1,1-.09-21.09c4.66,0,8.78,2.05,9.93,6.52V0h8.79V9.45l4.83-5.17h10.1l-8,7.6L121,24.13H110.36L106,17.31l-1.13,1.11v5.7H96.11Zm0-2.46V11.92H88.82V11.7A2.25,2.25,0,0,0,88.09,10a2.27,2.27,0,0,0-1.72-.59c-2.58,0-3,2.23-3,4.64l-.08,0c0,2.46.43,4.64,3.07,4.62A2.74,2.74,0,0,0,89,16v-.25Z" />
            <path class="cls-1"
                d="M95.21,32.21H85.13L75.77,47.37,65.22,32.21H54.91L69.62,53.36,55.06,76.19H65.22l9.44-15.56L85.45,76.19H95.77L80.65,54.4Z" />
            <path class="cls-1" d="M50.65,32.21H41.53v44h9.12Z" />
            <path class="cls-1"
                d="M115.07,66.85q-1.39-1.44-1.4-5.19V40h10.64V32.21H98.16V40h6.31V61.51q0,7.91,3.64,11.29t10.69,3.4h5.59V68.3H120Q116.48,68.29,115.07,66.85Z" />
            <path class="cls-1" d="M162.5,32.21,150.26,64.54,137.07,32.21H126.83l18.56,42.94-9.52,22H146l26.63-64.9Z" />
            <path class="cls-1"
                d="M34.71,56.4a12.44,12.44,0,0,0-2.81-2.8A13.08,13.08,0,0,0,28,51.67c-.58-.17-1.53-.42-2.87-.77L21,49.82l-3.77-1-1.94-.52a8.78,8.78,0,0,1-3.51-1.84,4.11,4.11,0,0,1-1.25-3.22,4,4,0,0,1,.66-2.39,5,5,0,0,1,1.72-1.55,8.37,8.37,0,0,1,2.41-.86A14.06,14.06,0,0,1,18,38.16,10.82,10.82,0,0,1,24.2,39.8c1.55,1.05,2.43,2.9,2.62,5.51l0,.57H35.7l0-.6a13.3,13.3,0,0,0-5.24-10.92,16.72,16.72,0,0,0-5.55-2.77,24,24,0,0,0-12.63-.12A16.56,16.56,0,0,0,7,33.92a13,13,0,0,0-3.84,4.23,11.92,11.92,0,0,0-1.46,6,13.73,13.73,0,0,0,.48,3.54A9.78,9.78,0,0,0,3.81,51,11.39,11.39,0,0,0,7,53.85a17,17,0,0,0,4.85,2c3,.82,5.61,1.49,7.66,2a52.39,52.39,0,0,1,5.36,1.6,5.83,5.83,0,0,1,2.23,1.5,4.62,4.62,0,0,1,1,3.32,5.86,5.86,0,0,1-.45,2.18,4.81,4.81,0,0,1-1.41,1.87,8.13,8.13,0,0,1-2.68,1.38,13.06,13.06,0,0,1-4.12.56,16.84,16.84,0,0,1-4.18-.5,9.63,9.63,0,0,1-3.3-1.56,7,7,0,0,1-2.2-2.66,9.28,9.28,0,0,1-.81-4l0-.63H0v.61a16.83,16.83,0,0,0,1.6,7.28,14.48,14.48,0,0,0,4.1,5.09,16.94,16.94,0,0,0,6,2.93,26.77,26.77,0,0,0,7.07.95h.18a27.4,27.4,0,0,0,6.5-.79,17.66,17.66,0,0,0,5.79-2.51A13.49,13.49,0,0,0,35.38,70,13.08,13.08,0,0,0,37,63.4a12.71,12.71,0,0,0-.55-3.62A12.06,12.06,0,0,0,34.71,56.4Z" />
        </g>
    </g>
</svg>